<?xml version="1.0" encoding="UTF-8"?>
<svg version="1.1" xmlns="http://www.w3.org/2000/svg" width="878" height="140">
<path d="M0 0 C7.30522476 5.59520024 9.78176539 12.67494539 11.0859375 21.59765625 C12.11243919 33.4166826 10.69940909 44.14531319 3.29296875 53.66015625 C-2.71648287 58.93571024 -8.56885684 60.24876776 -16.4140625 60.09765625 C-17.61869141 60.12085937 -17.61869141 60.12085937 -18.84765625 60.14453125 C-25.60234998 60.10074069 -30.98953516 58.38668425 -35.9375 53.66796875 C-43.07328957 43.39738144 -44.30469 31.73483861 -42.1640625 19.53515625 C-40.20154002 10.91359199 -37.41235925 4.60722496 -29.9140625 -0.40234375 C-21.20226831 -5.84721512 -8.69666552 -5.18621748 0 0 Z M-24.9140625 9.59765625 C-29.01847786 15.54933547 -29.50795385 21.09227634 -29.3515625 28.16015625 C-29.35865234 29.06701172 -29.36574219 29.97386719 -29.37304688 30.90820312 C-29.31344414 37.23067784 -28.51789886 42.31455823 -24.4765625 47.41015625 C-20.32357322 50.5664281 -17.18044504 51.14245444 -11.9140625 50.59765625 C-7.68363661 48.56379765 -5.07208666 46.40892847 -3.4453125 41.90625 C-1.11115239 31.76295131 -0.96329809 21.02737075 -5.7265625 11.59765625 C-8.09416132 8.35066358 -9.03594532 7.40935519 -12.9140625 6.59765625 C-17.88205945 6.15408509 -21.077889 6.27988457 -24.9140625 9.59765625 Z " fill="#801A6E" transform="translate(726.9140625,49.40234375)"/>
<path d="M0 0 C30 0 30 0 36 3 C36 3.66 36 4.32 36 5 C36.66 5 37.32 5 38 5 C41.7481586 10.6222379 41.82609942 16.39120464 41 23 C38.93950378 27.12099245 36.22414433 29.77585567 33 33 C33 33.66 33 34.32 33 35 C33.66 35 34.32 35 35 35 C47 58.73786408 47 58.73786408 47 62 C42.71 62 38.42 62 34 62 C33.49210938 60.9378125 32.98421875 59.875625 32.4609375 58.78125 C27.62772996 47.34037053 27.62772996 47.34037053 20 38 C17.36 37.34 14.72 36.68 12 36 C12 44.58 12 53.16 12 62 C8.04 62 4.08 62 0 62 C0 41.54 0 21.08 0 0 Z M12 9 C12 14.94 12 20.88 12 27 C13.8975 26.9175 15.795 26.835 17.75 26.75 C18.81734375 26.70359375 19.8846875 26.6571875 20.984375 26.609375 C24.5923618 25.88029995 25.81928138 24.92839358 28 22 C28.72771233 19.26037712 28.57971577 16.76785861 28 14 C26.12984906 11.56880377 24.71861655 10.35930827 22 9 C20.29297265 8.93003986 18.58331997 8.91559846 16.875 8.9375 C15.26625 8.958125 13.6575 8.97875 12 9 Z " fill="#7F1B6F" transform="translate(757,47)"/>
<path d="M0 0 C29 0 29 0 37 5 C40.22851018 9.08596669 41.33284983 13.59326315 40.9375 18.75 C39.82397391 25.10040624 36.61833391 28.63130576 32 33 C32.845625 33.99 33.69125 34.98 34.5625 36 C37.67416888 40.12666563 39.7586688 44.47649455 41.8125 49.1875 C42.11422119 49.87650391 42.41594238 50.56550781 42.72680664 51.27539062 C44.26576866 54.90598786 45.21932492 58.09662462 46 62 C41.71 62 37.42 62 33 62 C32.443125 60.72125 31.88625 59.4425 31.3125 58.125 C29.35001905 53.68655742 27.19018719 49.37207716 24.953125 45.06640625 C24 43 24 43 24 41 C22.515 40.505 22.515 40.505 21 40 C21 39.34 21 38.68 21 38 C18.03 37.34 15.06 36.68 12 36 C12 44.58 12 53.16 12 62 C8.04 62 4.08 62 0 62 C0 41.54 0 21.08 0 0 Z M12 9 C12 14.94 12 20.88 12 27 C13.918125 26.896875 15.83625 26.79375 17.8125 26.6875 C18.89144531 26.62949219 19.97039062 26.57148437 21.08203125 26.51171875 C23.97249092 26.22514994 23.97249092 26.22514994 25.83203125 24.66796875 C27.78975168 21.87216065 27.8842718 19.35611783 28 16 C26.2240181 11.79372708 25.21465121 11.1073256 21 9 C18.03 9 15.06 9 12 9 Z " fill="#7F1A6F" transform="translate(203,47)"/>
<path d="M0 0 C3.96 0 7.92 0 12 0 C12 8.58 12 17.16 12 26 C19.92 26 27.84 26 36 26 C36 17.42 36 8.84 36 0 C39.96 0 43.92 0 48 0 C48 20.46 48 40.92 48 62 C44.04 62 40.08 62 36 62 C36 53.09 36 44.18 36 35 C28.08 35 20.16 35 12 35 C12 43.91 12 52.82 12 62 C8.04 62 4.08 62 0 62 C0 41.54 0 21.08 0 0 Z " fill="#801B6E" transform="translate(76,47)"/>
<path d="M0 0 C0.66 0.66 1.32 1.32 2 2 C1.7862539 4.77869928 1.2989626 6.55155611 -0.25 8.875 C-2 10 -2 10 -4.375 9.8125 C-7 9 -7 9 -9.3125 7.9375 C-12.96610805 6.66298556 -16.17309973 6.40228941 -20 7 C-23.626376 8.85348107 -25.27490345 11.0143527 -26.8125 14.6875 C-29.62833693 24.46201439 -29.32086455 35.93845197 -25.16796875 45.21484375 C-23.96683018 47.3056363 -23.96683018 47.3056363 -21 49 C-16.8592117 49.36006855 -13.62310682 49.11347898 -10 47 C-8.01003243 43.10474432 -7.63751467 39.51899206 -7.375 35.1875 C-7.30023437 34.02605469 -7.22546875 32.86460938 -7.1484375 31.66796875 C-7.09945312 30.78753906 -7.05046875 29.90710938 -7 29 C-3.04 29 0.92 29 5 29 C5 38.9 5 48.8 5 59 C1.37 59 -2.26 59 -6 59 C-6.33 58.01 -6.66 57.02 -7 56 C-7.66386719 56.4846875 -8.32773437 56.969375 -9.01171875 57.46875 C-12.6587233 59.33754187 -15.80231063 59.53702723 -19.8125 59.5 C-20.52374023 59.49427979 -21.23498047 59.48855957 -21.96777344 59.48266602 C-27.8127071 59.283681 -31.93118299 58.27333426 -36 54 C-43.73289224 44.13470415 -42.92732268 30.82277128 -42 19 C-40.35189585 10.06865716 -35.64452398 3.34837775 -28.3125 -1.9375 C-19.26582436 -6.0940807 -8.23874448 -5.38687139 0 0 Z " fill="#7F1A6E" transform="translate(858,50)"/>
<path d="M0 0 C1.60184626 -0.1352403 3.20696626 -0.23210847 4.8125 -0.3125 C5.70582031 -0.37050781 6.59914063 -0.42851563 7.51953125 -0.48828125 C10 0 10 0 11.67578125 2.078125 C13.16211276 5.35770012 14.29815152 8.62598018 15.375 12.0625 C17.21367859 17.78878982 19.30932284 23.30980211 21.68359375 28.83984375 C23.49874052 33.19727324 25.12085735 37.61975746 26.75610352 42.04711914 C28.72486886 47.34596891 30.86973155 52.5546634 33.1171875 57.7421875 C34 60 34 60 34 62 C29.71 62 25.42 62 21 62 C18.72266709 56.9898676 16.74705429 52.24116286 15 47 C8.4 47 1.8 47 -5 47 C-6.98 51.95 -8.96 56.9 -11 62 C-14.96 62 -18.92 62 -23 62 C-22.07524973 56.95590764 -20.8744294 52.46085366 -18.83203125 47.75390625 C-16.70949015 42.75025266 -14.70647097 37.71555809 -12.7734375 32.63671875 C-12.49628403 31.90887177 -12.21913055 31.18102478 -11.93357849 30.43112183 C-11.07932441 28.18377434 -10.22690326 25.93573957 -9.375 23.6875 C-8.51317596 21.41456012 -7.65075141 19.1418566 -6.78652954 16.86982727 C-6.25415484 15.47013225 -5.72310921 14.06993065 -5.19369507 12.66911316 C-3.56829693 8.39448183 -1.82576429 4.19152906 0 0 Z M4 17 C2.99513105 19.95670218 1.99693976 22.91561577 1 25.875 C0.71382813 26.71675781 0.42765625 27.55851562 0.1328125 28.42578125 C-0.13789063 29.23144531 -0.40859375 30.03710938 -0.6875 30.8671875 C-1.06455078 31.98262939 -1.06455078 31.98262939 -1.44921875 33.12060547 C-2.09374494 34.99347314 -2.09374494 34.99347314 -2 37 C2.62 37 7.24 37 12 37 C10.20532905 30.24861881 8.29690099 23.59748156 6 17 C5.34 17 4.68 17 4 17 Z " fill="#801A6E" transform="translate(283,47)"/>
<path d="M0 0 C12.21 0 24.42 0 37 0 C37 3.3 37 6.6 37 10 C28.75 10 20.5 10 12 10 C12 14.95 12 19.9 12 25 C18.93 25 25.86 25 33 25 C32 34 32 34 31 35 C29.58429877 35.08651611 28.164405 35.10704904 26.74609375 35.09765625 C25.89208984 35.09443359 25.03808594 35.09121094 24.15820312 35.08789062 C23.26037109 35.07951172 22.36253906 35.07113281 21.4375 35.0625 C20.53580078 35.05798828 19.63410156 35.05347656 18.70507812 35.04882812 C16.47002411 35.03700244 14.23500398 35.01906638 12 35 C12 40.94 12 46.88 12 53 C20.91 53 29.82 53 39 53 C39 55.97 39 58.94 39 62 C26.13 62 13.26 62 0 62 C0 41.54 0 21.08 0 0 Z " fill="#7F1B6E" transform="translate(146,47)"/>
<path d="M0 0 C29 0 29 0 37 5 C41.0349516 10.20638917 41.33266584 15.56846045 41 22 C40.13782457 28.03522801 37.71187262 30.694708 33.265625 34.51953125 C28.37439409 37.71569765 23.87805718 38.24240933 18.125 38.125 C15.093125 38.063125 15.093125 38.063125 12 38 C12 45.92 12 53.84 12 62 C8.04 62 4.08 62 0 62 C0 41.54 0 21.08 0 0 Z M12 9 C12 15.6 12 22.2 12 29 C21.34831248 30.03790968 21.34831248 30.03790968 25.0625 26.5625 C26.0215625 25.2940625 26.0215625 25.2940625 27 24 C27.33 23.67 27.66 23.34 28 23 C28.53172375 17.19106981 28.53172375 17.19106981 26.125 12.0625 C21.31348649 7.39250159 20.51000823 9 12 9 Z " fill="#7F1A6E" transform="translate(332,47)"/>
<path d="M0 0 C29 0 29 0 35 3 C35 3.66 35 4.32 35 5 C35.66 5 36.32 5 37 5 C40.85236208 10.39330691 41.44247727 15.47346028 41 22 C39.80087765 27.67657922 37.43322209 31.08369812 33.01171875 34.7734375 C28.17717597 37.72110048 23.70543837 38.2388865 18.125 38.125 C15.093125 38.063125 15.093125 38.063125 12 38 C12 45.92 12 53.84 12 62 C8.04 62 4.08 62 0 62 C0 41.54 0 21.08 0 0 Z M12 9 C12 15.6 12 22.2 12 29 C21.23298243 29.93100063 21.23298243 29.93100063 25.0625 26.9375 C27.37113313 23.43731429 27.92533746 21.18110238 28 17 C27.25497263 13.72187957 26.459119 12.40346821 23.9375 10.1875 C20.13740956 8.43781624 20.13740956 8.43781624 12 9 Z " fill="#7F1A6E" transform="translate(537,47)"/>
<path d="M0 0 C1.9609375 1.046875 1.9609375 1.046875 3.3515625 2.921875 C3.9609375 5.046875 3.9609375 5.046875 3.28125 6.96875 C2.17447917 8.66145833 1.06770833 10.35416667 -0.0390625 12.046875 C-2.40152332 11.50169173 -4.57673589 10.84375394 -6.8515625 9.984375 C-10.46188535 8.92251534 -13.29462808 8.69362647 -17.0390625 9.046875 C-19.16776943 10.00805405 -19.16776943 10.00805405 -20.0390625 12.046875 C-20.19103004 15.05591291 -20.19103004 15.05591291 -19.0390625 18.046875 C-14.93203938 21.87404572 -10.18161085 24.04902669 -5.12304688 26.31445312 C-0.38835072 28.55127715 2.88517318 31.05419021 4.6953125 36.08984375 C5.59160938 42.69344281 5.41013437 48.149861 1.9609375 54.046875 C-2.93228423 59.17145473 -6.62006672 61.15725144 -13.84179688 61.33911133 C-29.55166093 61.47998414 -29.55166093 61.47998414 -35.0390625 57.046875 C-36.29122443 53.41269339 -36.17092446 52.35073083 -34.6015625 48.734375 C-34.0859375 47.8475 -33.5703125 46.960625 -33.0390625 46.046875 C-29.63843336 46.47195364 -27.12730949 47.47785963 -24.1640625 49.109375 C-20.32299252 51.10615051 -17.40865473 51.56094467 -13.0390625 51.046875 C-9.62750192 49.26237024 -9.62750192 49.26237024 -9.1015625 45.171875 C-8.65882273 43.11774672 -8.65882273 43.11774672 -9.0390625 41.046875 C-12.32933387 36.74484518 -17.01959004 34.94205082 -21.81835938 32.77929688 C-26.77000342 30.4450267 -30.3282486 27.67530726 -33.328125 23.06640625 C-35.16827744 17.83916004 -35.01420278 11.21580816 -32.6640625 6.171875 C-25.22819509 -4.61793261 -11.0047745 -3.20527413 0 0 Z " fill="#801A6F" transform="translate(628.0390625,47.953125)"/>
<path d="M0 0 C0 0.66 0 1.32 0 2 C-1.41539062 2.23783203 -1.41539062 2.23783203 -2.859375 2.48046875 C-17.37888078 5.11905364 -30.62974021 9.13089586 -39.57348633 21.67553711 C-52.27564519 40.69846314 -53.14430191 64.15948429 -48.9375 86.125 C-48.76347656 86.96933594 -48.58945312 87.81367187 -48.41015625 88.68359375 C-47.84994545 91.84745095 -47.85762739 94.79661623 -48 98 C-50.2142303 95.7857697 -50.66977689 94.46242253 -51.62109375 91.51953125 C-51.91556396 90.61122559 -52.21003418 89.70291992 -52.51342773 88.76708984 C-54.0493598 83.85616518 -55.55055575 78.93716948 -57 74 C-57.556875 72.11474609 -57.556875 72.11474609 -58.125 70.19140625 C-60.19999136 61.72185017 -60.29951195 53.31339499 -60.375 44.625 C-60.38909912 43.42343262 -60.40319824 42.22186523 -60.41772461 40.98388672 C-60.3620402 30.85778217 -58.28257068 23.56140765 -53 15 C-52.34 15 -51.68 15 -51 15 C-50.74089844 14.42121094 -50.48179687 13.84242187 -50.21484375 13.24609375 C-45.52317247 4.57178189 -37.1557606 0.35543786 -28.125 -2.6171875 C-18.54745147 -4.3425547 -9.1008581 -3.03361937 0 0 Z " fill="#801A6E" transform="translate(457,31)"/>
<path d="M0 0 C14.52 0 29.04 0 44 0 C43 9 43 9 42 10 C37.05 10 32.1 10 27 10 C27 27.16 27 44.32 27 62 C23.37 62 19.74 62 16 62 C16 44.84 16 27.68 16 10 C10.72 10 5.44 10 0 10 C0 6.7 0 3.4 0 0 Z " fill="#801C6F" transform="translate(442,47)"/>
<path d="M0 0 C14.52 0 29.04 0 44 0 C43 9 43 9 42 10 C37.05 10 32.1 10 27 10 C27 27.16 27 44.32 27 62 C23.37 62 19.74 62 16 62 C16 44.84 16 27.68 16 10 C10.72 10 5.44 10 0 10 C0 6.7 0 3.4 0 0 Z " fill="#801C6F" transform="translate(15,47)"/>
<path d="M0 0 C3.96 0 7.92 0 12 0 C12 20.46 12 40.92 12 62 C8.04 62 4.08 62 0 62 C0 41.54 0 21.08 0 0 Z " fill="#801A6F" transform="translate(503,47)"/>
<path d="M0 0 C3.22756214 2.10915057 6.12204077 4.43933995 9 7 C9.63550781 7.53109375 10.27101563 8.0621875 10.92578125 8.609375 C12.625 10.125 12.625 10.125 15 13 C15.22218673 17.44373454 12.52485053 20.49778798 10 24 C8.0625 23.1875 8.0625 23.1875 6 22 C5.505 20.515 5.505 20.515 5 19 C4.34 19 3.68 19 3 19 C1.64613064 17.34997172 0.31321858 15.6825613 -1 14 C-1.66 13.67 -2.32 13.34 -3 13 C-3 12.34 -3 11.68 -3 11 C-3.58523438 10.70996094 -4.17046875 10.41992188 -4.7734375 10.12109375 C-6.12066056 9.44275512 -7.46145979 8.75113413 -8.7890625 8.03515625 C-16.87270604 3.7525451 -24.91220902 1.73288637 -34 1 C-34 0.34 -34 -0.32 -34 -1 C-22.76430204 -5.64925433 -10.88265562 -5.72682958 0 0 Z " fill="#7F1A6E" transform="translate(383,32)"/>
<path d="M0 0 C3.70390021 2.02666238 5.65363011 3.48044516 8 7 C8.73965025 11.59271203 8.60961194 15.02462089 6.125 19 C2.25847384 22.63908345 -1.14322474 22.41200863 -6.2890625 22.32421875 C-9 22 -9 22 -12.1875 20.1875 C-14.85078348 15.50379458 -15.01126771 11.26175229 -14 6 C-9.86696681 0.56179844 -6.71793242 -0.5598277 0 0 Z " fill="#7F1A6E" transform="translate(406,11)"/>
<path d="M0 0 C2.5 2 2.5 2 4 5 C4.17727603 7.99081817 3.73484376 10.01163536 3 13 C-0.7205836 15.48038907 -2.59796571 15.46337203 -7 15 C-9.4375 13.4375 -9.4375 13.4375 -11 11 C-11.56288002 7.05983987 -11.60396028 4.94217804 -9.4375 1.5625 C-6.03280512 -0.61999672 -3.96569988 -0.63734462 0 0 Z " fill="#7F1A6E" transform="translate(662,95)"/>
<path d="" fill="#FF0000" transform="translate(0,0)"/>
</svg>
