<?xml version="1.0" encoding="UTF-8" standalone="no"?>
<svg
   id="Layer_1"
   data-name="Layer 1"
   viewBox="0 0 1390.56 190.56"
   version="1.1"
   xmlns="http://www.w3.org/2000/svg"
   xmlns:svg="http://www.w3.org/2000/svg"
>
  <defs
     id="defs1">
    <style
       id="style1">
      .cls-1 {
        isolation: isolate;
      }
    </style>
  </defs>
  <path
     style="fill:#801B6F"
     d="m 643.96951,184.86798 c -0.16622,-0.396 -0.77301,-2.124 -1.34842,-3.84 -1.51115,-4.50661 -1.56992,-4.6803 -2.03005,-6 -0.23012,-0.66 -0.71375,-2.172 -1.07473,-3.36 -0.36098,-1.188 -0.76466,-2.43 -0.89705,-2.76 -0.13239,-0.33 -0.44993,-1.356 -0.70564,-2.28 -0.99222,-3.58532 -1.14864,-4.11053 -1.50108,-5.04 -0.2002,-0.528 -0.36873,-1.176 -0.37449,-1.44 -0.006,-0.264 -0.22061,-1.128 -0.47742,-1.92 -0.57134,-1.76194 -1.38803,-4.84815 -2.22287,-8.4 -0.1241,-0.528 -0.43354,-1.74072 -0.68764,-2.69494 -0.25409,-0.95422 -0.46199,-1.99005 -0.46199,-2.30186 0,-0.3118 -0.16575,-1.09708 -0.36833,-1.74506 -0.20259,-0.64798 -0.52536,-2.09614 -0.71727,-3.21814 -0.19192,-1.122 -0.45479,-2.58 -0.58416,-3.24 -0.71037,-3.62414 -1.02814,-5.5545 -1.32354,-8.04 -0.18042,-1.518 -0.43431,-3.246 -0.56422,-3.84 -0.1299,-0.594 -0.30863,-2.268 -0.39716,-3.72 -0.0885,-1.452 -0.31453,-4.206 -0.5022,-6.12 -0.3905,-3.98257 -0.45012,-13.06044 -0.1056,-16.079999 0.12801,-1.122 0.34275,-3.336 0.4772,-4.92 0.23478,-2.76617 0.9552,-7.347331 1.47192,-9.360005 0.13555,-0.528 0.38486,-1.608 0.55402,-2.4 0.16916,-0.792 0.48566,-1.98 0.70334,-2.64 0.21768,-0.66 0.65975,-2.01 0.98237,-3 0.93353,-2.86455 1.17266,-3.351484 4.10503,-8.358958 1.01101,-1.726452 4.39925,-6.758361 6.00716,-8.92129 5.14298,-6.918259 12.31868,-13.871718 18.69653,-18.117465 2.65099,-1.764773 2.65741,-1.76838 6.88396,-3.869729 4.58353,-2.27884 6.26513,-2.94727 10.39306,-4.13119 4.5915,-1.31688 12.46749,-2.43784 17.18123,-2.44534 3.0646,-0.005 10.64348,0.81429 13.43855,1.45252 1.13559,0.2593 2.38111,0.47145 2.76784,0.47145 0.38672,0 1.31758,0.216 2.06858,0.48 0.751,0.264 1.62915,0.48 1.95145,0.48 0.3223,0 1.08982,0.216 1.7056,0.48 0.61578,0.264 1.32618,0.48 1.57867,0.48 0.51996,0 3.35962,0.9276 3.65169,1.19285 0.10517,0.0955 -1.1906,0.24215 -2.87951,0.32583 -1.6889,0.0837 -3.50265,0.26147 -4.03056,0.39507 -0.52791,0.1336 -1.98095,0.35316 -3.22897,0.48793 -1.24802,0.13476 -2.81375,0.39718 -3.4794,0.58315 -0.66565,0.18597 -1.75017,0.44106 -2.41006,0.566855 -1.80053,0.343244 -4.48116,1.018022 -5.15911,1.298675 -0.32994,0.136587 -1.1398,0.389532 -1.79969,0.5621 -1.6477,0.430894 -3.41143,1.03868 -4.57498,1.576552 -0.53658,0.248044 -1.13345,0.45099 -1.32637,0.45099 -0.19292,0 -0.56376,0.147452 -0.82408,0.327672 -0.26033,0.18022 -0.74328,0.407401 -1.07322,0.504848 -0.56416,0.166621 -4.16156,1.793955 -5.11531,2.313984 -0.23987,0.130785 -1.26569,0.670241 -2.27961,1.198792 -2.24448,1.170038 -2.07663,1.069039 -5.91836,3.561157 -8.75313,5.678123 -15.93194,12.786897 -22.06887,21.853547 -0.75945,1.122 -1.58682,2.418 -1.83859,2.88 -0.25178,0.462 -0.56114,1.002 -0.68746,1.2 -0.43858,0.687462 -3.12472,5.556571 -3.12472,5.664127 0,0.05949 -0.48592,1.13443 -1.07981,2.388749 -0.5939,1.254319 -1.07982,2.382663 -1.07982,2.507432 0,0.124768 -0.20447,0.68874 -0.45439,1.253272 -0.97394,2.199985 -1.76435,4.333655 -2.42511,6.546425 -0.2365,0.792 -0.54144,1.764 -0.67764,2.16 -0.59765,1.73762 -1.42282,4.912479 -1.99609,7.679999 -0.13672,0.66 -0.45072,2.064 -0.69779,3.12 -0.24707,1.056 -0.5169,2.568 -0.59963,3.36 -0.0827,0.792 -0.29263,2.088 -0.46646,2.88 -0.17383,0.792 -0.3852,2.358 -0.4697,3.48 -0.0845,1.122 -0.3361,3.282 -0.55909,4.8 -0.58085,3.95406 -0.57288,26.92576 0.0109,31.44 0.21338,1.65 0.45565,4.134 0.53837,5.52 0.0827,1.386 0.29901,3.384 0.48063,4.44 0.18162,1.056 0.4474,3.13619 0.59062,4.62265 0.14322,1.48646 0.36212,2.97025 0.48645,3.29732 0.12433,0.32707 0.29109,1.32488 0.37058,2.21735 0.14569,1.63574 0.68888,4.7146 1.58362,8.97613 0.26715,1.2724 0.44194,2.5684 0.38842,2.88 -0.0941,0.54766 -0.10738,0.54255 -0.39953,-0.15345 z M 1051.8784,162.0378 c -3.3428,-1.11645 -5.2371,-3.12213 -6.395,-6.77133 -0.7277,-2.2932 -0.7311,-4.35607 -0.011,-6.87849 1.13,-3.95894 2.9938,-5.97707 6.5982,-7.14468 4.9512,-1.60392 10.5599,0.31044 12.4946,4.26468 1.2281,2.51017 1.3312,2.97568 1.3233,5.97322 -0.01,2.62465 -0.074,3.0754 -0.6951,4.6441 -1.252,3.16453 -3.24,5.00901 -6.4274,5.96319 -2.5279,0.75679 -4.5135,0.74217 -6.8875,-0.0507 z m -75.82962,-0.54912 c -0.72587,-0.10054 -2.2916,-0.31646 -3.4794,-0.47981 -1.18779,-0.16335 -2.75352,-0.45805 -3.4794,-0.65489 -0.72587,-0.19684 -1.89853,-0.46207 -2.60589,-0.5894 -0.70737,-0.12734 -1.57122,-0.37573 -1.91967,-0.55199 -0.34845,-0.17625 -1.03392,-0.39293 -1.52326,-0.48151 -0.48934,-0.0886 -1.19122,-0.31834 -1.55973,-0.51059 -0.36851,-0.19226 -0.79894,-0.35022 -0.95651,-0.35103 -1.3758,-0.007 -11.69425,-5.1247 -12.0142,-5.95863 -0.0753,-0.19637 0.0857,-0.79934 0.35789,-1.33994 0.27218,-0.5406 0.72206,-1.49591 0.99974,-2.12291 0.27767,-0.627 0.72082,-1.626 0.98478,-2.22 0.26395,-0.594 0.70772,-1.593 0.98614,-2.22 0.27842,-0.627 0.75119,-1.68 1.0506,-2.34 0.2994,-0.66 0.66319,-1.497 0.8084,-1.86 0.14522,-0.363 0.40132,-0.6592 0.56912,-0.65822 0.16781,9.9e-4 1.16895,0.4961 2.22477,1.10026 1.05581,0.60416 2.24361,1.24918 2.63954,1.43339 0.39593,0.18421 0.88185,0.44516 1.07981,0.57989 0.19797,0.13473 0.6299,0.35264 0.95984,0.48425 0.32994,0.13161 0.76187,0.34094 0.95983,0.4652 0.19797,0.12425 1.00783,0.50671 1.79969,0.84992 0.79187,0.3432 1.61532,0.72034 1.8299,0.83809 0.21457,0.11774 1.29439,0.55447 2.39958,0.97051 1.1052,0.41605 2.33339,0.9036 2.72932,1.08346 0.39593,0.17986 1.36777,0.49885 2.15963,0.70888 0.79186,0.21002 1.81768,0.48335 2.27961,0.60739 1.38577,0.37213 6.68061,0.28592 8.16628,-0.13295 0.72164,-0.20346 1.69589,-0.46926 2.165,-0.59067 2.61348,-0.67635 5.83555,-3.56501 7.26018,-6.50889 0.48694,-1.00622 0.88535,-2.0156 0.88535,-2.24306 0,-0.22747 0.16917,-0.99562 0.37595,-1.70702 0.76154,-2.62006 0.18106,-7.35398 -1.25157,-10.20677 -0.76506,-1.52346 -3.08663,-4.00998 -4.81576,-5.15791 -1.35065,-0.89666 -5.77867,-3.21507 -6.14144,-3.21551 -0.10716,-1.3e-4 -0.80904,-0.2823 -1.55973,-0.62705 -0.7507,-0.34474 -1.85082,-0.84114 -2.44472,-1.1031 -0.5939,-0.26196 -1.40376,-0.61946 -1.79969,-0.79444 -2.06745,-0.91371 -9.79084,-4.82456 -11.04168,-5.59112 -7.29309,-4.46947 -11.33647,-9.84049 -13.04216,-17.324529 -0.77822,-3.41456 -0.74228,-9.187214 0.0768,-12.340303 1.33708,-5.147039 4.2816,-9.715903 8.46309,-13.13175 1.02874,-0.840373 2.08547,-1.660322 2.34828,-1.822108 1.53506,-0.944965 4.48302,-2.50582 5.18166,-2.743531 0.44838,-0.15256 1.02823,-0.422491 1.28855,-0.599847 0.26033,-0.177356 0.69225,-0.327206 0.95984,-0.333 0.26758,-0.0058 0.91844,-0.174134 1.44635,-0.374089 0.5279,-0.199955 2.46433,-0.627215 4.30315,-0.949466 3.92453,-0.687765 8.73888,-0.785876 11.92261,-0.242967 1.1061,0.188618 2.65898,0.41766 3.45084,0.508982 0.79186,0.09132 1.79697,0.31211 2.23357,0.490641 0.4366,0.178532 1.35444,0.398659 2.03965,0.489171 0.6852,0.09051 1.60461,0.314127 2.04313,0.496922 0.43856,0.182794 1.24836,0.429465 1.79966,0.548157 1.1153,0.240111 3.4773,1.042645 4.638,1.575836 0.4159,0.191041 0.8322,0.347347 0.9252,0.347347 0.4359,0 5.2023,2.4775 5.3109,2.760535 0.1154,0.30073 -0.3406,1.247151 -1.5608,3.239465 -0.2829,0.462 -0.6776,1.164 -0.8769,1.56 -0.1994,0.396 -0.6726,1.26 -1.0517,1.92 -0.379,0.66 -1.0459,1.87208 -1.4819,2.693512 -0.436,0.821432 -1.019,1.777266 -1.2955,2.124076 l -0.5027,0.630564 -1.1911,-0.694181 c -0.6552,-0.381799 -1.8391,-0.991245 -2.631,-1.354324 -0.7918,-0.363079 -1.8716,-0.871832 -2.39955,-1.130562 -0.5279,-0.25873 -1.10041,-0.470118 -1.27223,-0.469752 -0.17182,3.67e-4 -0.71172,-0.204052 -1.19979,-0.454265 -0.48807,-0.250213 -1.64327,-0.680226 -2.56711,-0.955584 -5.51269,-1.643106 -5.07704,-1.567334 -8.99844,-1.565086 -3.37617,0.0019 -3.88542,0.05952 -5.51905,0.624069 -4.48928,1.551408 -6.37815,3.178835 -7.65039,6.59149 -0.48683,1.30588 -0.53836,1.78578 -0.43804,4.08 0.1654,3.782919 0.95566,6.115158 2.9666,8.755098 1.39431,1.83043 3.40653,3.5858 5.61047,4.89432 0.231,0.13715 0.5665,0.36724 0.74555,0.51132 0.58238,0.46862 6.64158,3.439309 7.01502,3.439309 0.16969,0 1.71603,0.67368 3.89498,1.69692 0.54237,0.25469 1.05851,0.46308 1.14699,0.46308 0.18991,0 6.77299,3.23938 7.45119,3.66655 0.2563,0.1614 1.028,0.64064 1.715,1.06499 2.9112,1.79829 6.0964,4.77627 7.9641,7.4461 0.7642,1.09229 2.1576,3.91865 2.73,5.53708 1.5868,4.48707 1.6828,13.87196 0.1842,17.99428 -0.2538,0.69795 -0.4614,1.42393 -0.4614,1.61327 0,0.40154 -1.9072,4.40156 -2.6979,5.65842 -1.4642,2.32736 -2.0694,3.09358 -3.881,4.9136 -2.6724,2.68495 -5.9624,4.80305 -10.95379,7.05207 -0.60257,0.2715 -1.27346,0.49364 -1.49086,0.49364 -0.2174,0 -0.94317,0.216 -1.61283,0.48 -0.66966,0.264 -1.61849,0.48188 -2.10852,0.48417 -0.49003,0.002 -1.6452,0.16395 -2.56703,0.35925 -1.9648,0.41626 -7.58597,0.63992 -9.48201,0.37728 z m 161.49212,0.11005 c -0.198,-0.0472 -1.8717,-0.26472 -3.7194,-0.48327 -3.2979,-0.39011 -6.1382,-0.97676 -8.2786,-1.70993 -0.5939,-0.20343 -1.424,-0.45772 -1.8447,-0.56507 -0.7127,-0.18185 -2.6114,-0.98385 -3.4344,-1.45059 -0.1979,-0.11228 -0.9928,-0.54212 -1.7664,-0.95518 -3.2214,-1.72018 -6.3551,-4.39969 -8.8972,-7.60751 -1.9086,-2.40853 -4.1553,-6.09351 -5.0149,-8.22517 -0.2426,-0.60172 -0.6584,-1.63403 -0.9239,-2.29403 -0.2656,-0.66 -0.6235,-1.74 -0.7952,-2.4 -0.1718,-0.66 -0.4849,-1.67258 -0.6958,-2.25017 -0.2108,-0.5776 -0.3834,-1.34344 -0.3834,-1.70186 0,-0.35843 -0.1665,-1.18185 -0.3699,-1.82983 -0.2035,-0.64798 -0.4673,-2.09614 -0.5861,-3.21814 -0.1189,-1.122 -0.3837,-3.12 -0.5885,-4.44 -0.5248,-3.38289 -0.5259,-16.28537 0,-19.68 0.2039,-1.32 0.4645,-3.263999 0.5791,-4.319999 0.1147,-1.056 0.3719,-2.568 0.5716,-3.36 0.1997,-0.792 0.4716,-1.926 0.6042,-2.52 1.0217,-4.578348 3.3494,-10.510309 5.4151,-13.800005 1.371,-2.183471 1.7894,-2.787683 2.9915,-4.32 2.4493,-3.122258 5.4322,-5.844829 8.6617,-7.90595 0.5939,-0.379027 1.3504,-0.861245 1.6811,-1.071595 1.6526,-1.051272 7.1502,-3.382455 7.9769,-3.382455 0.2256,0 1.0874,-0.209282 1.915,-0.465071 2.5176,-0.778099 8.2998,-1.455612 12.4229,-1.455612 4.1231,0 9.9053,0.677513 12.4229,1.455612 0.8276,0.255789 1.6915,0.468736 1.9197,0.473215 0.2282,0.0045 0.8468,0.216814 1.3747,0.471856 0.5279,0.255042 1.097,0.467378 1.2647,0.471856 0.361,0.0096 4.2313,1.852168 5.0942,2.425132 0.3299,0.219095 1.2322,0.804285 2.0051,1.300423 3.2434,2.082056 7.4814,6.543146 9.5783,10.082589 2.3406,3.950666 4.2588,8.723349 5.016,12.480005 0.133,0.66 0.4483,1.956 0.7005,2.88 0.2522,0.924 0.4605,2.112 0.4628,2.64 0,0.528 0.1655,1.662 0.3626,2.52 0.8723,3.796559 0.8745,21.633089 0,25.079999 -0.2003,0.792 -0.3654,1.926 -0.3671,2.52 0,0.594 -0.2107,1.836 -0.4645,2.76 -0.2539,0.924 -0.5707,2.166 -0.7041,2.76 -0.4408,1.9631 -1.8804,6.38802 -2.3898,7.34519 -0.1331,0.25014 -0.7769,1.53481 -1.4307,2.85481 -1.0278,2.07499 -2.9546,5.27123 -3.4,5.64 -0.08,0.066 -0.3445,0.43315 -0.5884,0.81588 -0.6852,1.07526 -4.1884,4.64435 -5.71,5.81737 -3.2315,2.49125 -8.1563,5.27408 -10.1527,5.73695 -0.3959,0.0918 -0.9472,0.30833 -1.2251,0.48118 -0.2779,0.17286 -1.0338,0.418 -1.6797,0.54476 -0.646,0.12676 -1.8764,0.40013 -2.7342,0.60748 -2.902,0.70144 -6.822,1.15892 -10.6782,1.24617 -2.1116,0.0478 -4.0013,0.0482 -4.1992,9.6e-4 z m 11.398,-13.65569 c 0.7919,-0.24025 2.4616,-0.94042 3.7105,-1.55594 4.2933,-2.11594 8.1695,-6.75384 10.1621,-12.15912 0.9619,-2.6094 1.8447,-5.62039 1.8447,-6.29206 0,-0.2739 0.2089,-1.61624 0.4641,-2.98297 1.1341,-6.07126 1.1304,-21.21346 -0.01,-26.823209 -0.2517,-1.24202 -0.4576,-2.60941 -0.4576,-3.03864 0,-0.42923 -0.203,-1.35702 -0.451,-2.06177 -0.2481,-0.70474 -0.5623,-1.71335 -0.6983,-2.24135 -0.6887,-2.673752 -2.6014,-6.667144 -4.2455,-8.864101 -1.524,-2.036381 -3.606,-4.075052 -5.4034,-5.290907 -1.3583,-0.918843 -4.157,-2.284997 -4.6811,-2.284997 -0.1625,0 -0.9844,-0.22958 -1.8265,-0.510177 -1.3345,-0.444698 -2.1161,-0.512815 -6.0902,-0.530732 -4.1509,-0.01872 -4.7096,0.0291 -6.2389,0.533903 -4.249,1.402557 -6.9956,3.280354 -9.6803,6.618129 -3.0212,3.756249 -5.8822,11.219132 -6.3979,16.688882 -0.081,0.858 -0.3049,2.47777 -0.4978,3.599479 -0.5774,3.35655 -0.4915,16.36325 0.1394,21.12052 1.2334,9.29986 3.2196,14.63383 7.2645,19.50901 2.2771,2.74453 6.4136,5.41028 9.772,6.29755 2.8881,0.76303 3.2282,0.79682 7.5587,0.75101 3.3903,-0.0359 4.6289,-0.13963 5.759,-0.48251 z m 197.7259,13.53367 c -3.0952,-0.42226 -5.1595,-0.81395 -6.4958,-1.23249 -0.8012,-0.25093 -1.582,-0.45624 -1.7351,-0.45624 -0.5628,0 -4.5427,-2.01632 -6.4066,-3.24573 -5.8006,-3.82612 -10.0341,-9.79578 -12.8459,-18.11427 -1.5242,-4.50894 -2.7697,-11.22882 -3.1583,-17.04 -0.3376,-5.04761 -0.073,-19.38181 0.3925,-21.28908 0.2,-0.818989 0.4604,-2.222989 0.5786,-3.119999 0.2324,-1.7636 0.8273,-4.34683 1.3982,-6.07092 0.1967,-0.594 0.5016,-1.566 0.6776,-2.16 1.1408,-3.850336 3.1997,-8.159132 5.7183,-11.96715 2.6191,-3.959694 7.5765,-8.675779 11.5563,-10.993513 1.2654,-0.736972 5.372,-2.719342 5.6333,-2.719342 0.1623,0 0.6353,-0.160706 1.0512,-0.357124 1.2312,-0.581468 4.1869,-1.322797 6.7551,-1.694266 1.3198,-0.190891 2.9863,-0.455419 3.7035,-0.587842 1.9752,-0.364745 9.0072,-0.298444 11.2074,0.105669 1.0374,0.190541 2.5341,0.420299 3.326,0.510575 0.7918,0.09027 1.7134,0.303119 2.0479,0.472987 0.3345,0.169868 1.0364,0.387935 1.5597,0.484595 0.5234,0.09666 1.3279,0.375918 1.7879,0.620575 0.46,0.244657 0.9632,0.444831 1.1183,0.444831 0.1551,0 1.0443,0.432 1.9759,0.96 0.9316,0.528 1.7555,0.96 1.8309,0.96 0.075,0 0.4296,0.200112 0.7872,0.444693 0.3576,0.244581 1.406,0.949176 2.3299,1.565767 3.0531,2.037748 4.3571,3.566976 3.4956,4.099507 -0.199,0.123027 -1.6367,1.985573 -5.9821,7.750033 -0.7214,0.957 -1.477,1.74 -1.6791,1.74 -0.2021,0 -0.6433,-0.254462 -0.9804,-0.565472 -0.7244,-0.668218 -3.4761,-2.559669 -4.3324,-2.97798 -0.3299,-0.161185 -0.7619,-0.384888 -0.9598,-0.497118 -0.9564,-0.542186 -2.5533,-1.240692 -2.8351,-1.240097 -0.1735,3.67e-4 -0.8213,-0.199426 -1.4397,-0.443984 -2.9811,-1.178999 -5.4907,-1.578744 -9.8828,-1.574226 -3.7496,0.0039 -4.3791,0.06418 -5.879,0.563399 -4.0969,1.363632 -6.8424,3.277112 -9.4243,6.568343 -2.4045,3.065046 -4.5636,7.513357 -5.4397,11.20714 -0.1722,0.726 -0.4201,1.59 -0.551,1.92 -0.1309,0.33 -0.3114,1.248 -0.4012,2.04 -0.09,0.792 -0.3472,2.25 -0.5721,3.24 -0.3524,1.551609 -0.4088,3.290299 -0.4088,12.599999 0,9.27295 0.057,11.05451 0.4058,12.6 0.2232,0.99 0.4744,2.394 0.5583,3.12 0.084,0.726 0.2612,1.698 0.3942,2.16 0.1329,0.462 0.3876,1.434 0.5661,2.16 0.5426,2.20762 1.715,5.50089 2.3069,6.48 0.1197,0.198 0.3775,0.70773 0.5729,1.13274 0.548,1.19186 2.2329,3.55676 3.4529,4.84648 1.6006,1.692 3.8696,3.12429 6.1794,3.90061 1.7727,0.59579 2.379,0.68017 4.8867,0.68017 3.2961,0 4.8544,-0.3797 8.1232,-1.97925 2.9363,-1.43689 5.645,-3.63891 7.4554,-6.06075 1.0372,-1.38749 2.891,-4.59226 2.8932,-5.00149 8e-4,-0.15318 0.1733,-0.60251 0.3833,-0.99851 0.2101,-0.396 0.6413,-1.9596 0.9584,-3.47466 0.5377,-2.56919 0.5765,-3.25998 0.5765,-10.26 v -7.50534 h 8.1597 8.1597 l -0.061,24.18 -0.061,24.18 -7.3465,0.0634 c -8.2169,0.0709 -8.0249,0.10895 -7.6343,-1.51163 0.2687,-1.11494 0.7239,-9.85863 0.5384,-10.34211 -0.07,-0.18132 -0.2643,-0.32968 -0.4328,-0.32968 -0.3473,0 -2.0419,1.79393 -2.0419,2.16152 0,0.47448 -3.754,3.98123 -5.3991,5.04352 -2.2538,1.45534 -2.5789,1.65318 -2.9995,1.82541 -0.1979,0.0811 -0.8255,0.36327 -1.3947,0.62712 -0.5691,0.26385 -1.379,0.56875 -1.7997,0.67755 -0.4207,0.10881 -1.2508,0.35401 -1.8447,0.54488 -0.9926,0.31902 -2.1991,0.54248 -6.1189,1.13333 -1.6213,0.24438 -5.151,0.24205 -6.9588,-0.005 z M 27.31253,160.58903 c -0.23839,-0.0962 -0.299948,-8.9348 -0.299948,-43.06699 V 74.576096 l -0.627036,-0.23844 c -0.384355,-0.146157 -5.004678,-0.235009 -11.93794,-0.229576 -6.220997,0.0049 -11.5556254,0.0068 -11.8547304,0.0044 l -0.543826,-0.0045 0.06391,-6.42 0.06391,-6.42 34.1413254,-0.06082 c 28.423427,-0.05064 34.162071,-0.0067 34.265201,0.26205 0.06813,0.177579 -0.04975,1.122949 -0.261961,2.100822 -0.21221,0.977872 -0.536599,2.91195 -0.720865,4.29795 -0.184265,1.386 -0.447565,2.897287 -0.58511,3.358416 -0.137545,0.461128 -0.250082,1.237754 -0.250082,1.725835 0,0.488082 -0.105661,0.952734 -0.234803,1.032562 -0.129141,0.07983 -5.565575,0.167201 -12.080964,0.194164 -9.652047,0.03994 -11.919908,0.110229 -12.244328,0.379476 -0.368215,0.305595 -0.397875,3.543217 -0.394278,43.038705 0.0021,23.48953 -0.05765,42.80783 -0.132856,42.92954 -0.140373,0.22717 -15.809309,0.28687 -16.365617,0.0624 z m 74.21847,-0.0628 c -0.0754,-0.12195 -0.13702,-22.50495 -0.13702,-49.74 V 61.267976 h 8.22146 8.22146 l 0.0598,20.76 c 0.0553,19.179034 0.0908,20.782844 0.46579,21.060004 0.62067,0.45869 40.69538,0.43627 41.07645,-0.023 0.19174,-0.23107 0.28546,-6.223869 0.32933,-21.060004 l 0.0614,-20.73702 h 8.39855 8.39855 v 49.680004 49.68 l -7.91863,0.067 c -4.35525,0.0369 -8.16159,0.008 -8.45854,-0.0646 l -0.53991,-0.13161 v -22.32137 -22.32137 l -0.6295,-0.23938 c -0.76268,-0.29002 -40.37139,-0.20714 -40.82334,0.0854 -0.23641,0.15304 -0.29995,4.91375 -0.29995,22.47433 0,20.09519 -0.0372,22.29444 -0.37956,22.42583 -0.62552,0.24008 -15.8957,0.16769 -16.04632,-0.0761 z m 114.94016,0 c -0.0754,-0.12195 -0.13702,-22.50495 -0.13702,-49.74 l -1e-5,-49.518264 29.15786,-0.06096 29.15785,-0.06096 v 6.480974 6.480956 l -19.85658,0.01383 c -10.92111,0.0076 -20.28849,0.09043 -20.8164,0.184046 l -0.95984,0.170215 -0.062,13.661952 c -0.0425,9.365472 0.0178,13.741831 0.19186,13.915951 0.17141,0.17152 5.72421,0.29297 17.09905,0.374 l 16.8452,0.12 -0.0574,0.96 c -0.0316,0.528 -0.21383,1.608 -0.40498,2.4 -0.19114,0.792 -0.41659,2.196 -0.50101,3.12 -0.0844,0.924 -0.27124,2.058 -0.41518,2.52 -0.14394,0.462 -0.32456,1.488 -0.40138,2.28 l -0.13968,1.44 -15.83726,0.12 c -8.7105,0.066 -15.97225,0.20737 -16.13722,0.31416 -0.23488,0.15205 -0.29995,3.5732 -0.29995,15.77156 0,15.15528 0.0126,15.58412 0.46415,15.82584 0.31003,0.16595 7.60006,0.24844 21.95621,0.24844 11.82063,0 21.49431,0.081 21.49706,0.18 0.0817,2.94512 -0.008,12.59133 -0.11923,12.7707 -0.19999,0.32365 -60.02419,0.35103 -60.22407,0.0276 z m 93.34275,-0.002 c -0.22795,-0.3689 -0.15031,-98.732229 0.0781,-98.960694 0.1152,-0.115216 7.43232,-0.272778 16.26027,-0.350138 15.53215,-0.136111 16.1942,-0.12352 20.48759,0.389619 2.44022,0.291651 4.97667,0.689641 5.63656,0.884423 0.65989,0.194781 1.68571,0.450896 2.27961,0.569144 1.64741,0.328009 3.83925,1.12633 6.05895,2.206814 6.03194,2.936169 10.24874,8.304855 11.94219,15.204408 0.63049,2.568796 0.69506,3.261862 0.70517,7.569576 0.008,3.372149 -0.0834,4.795939 -0.3771,5.879999 -0.21315,0.78673 -0.47662,1.87215 -0.58548,2.41205 -0.32391,1.60643 -1.80749,4.818419 -3.19469,6.916589 -2.45009,3.70582 -7.07221,7.10619 -11.49027,8.4531 -1.74934,0.53331 -2.38951,1.98042 -1.05695,2.38926 0.90234,0.27685 3.71118,2.70213 5.20313,4.49264 2.2878,2.74559 3.25702,4.16418 5.66423,8.29035 1.01302,1.73642 4.36127,8.56726 5.37048,10.95644 0.27879,0.66 0.65177,1.524 0.82884,1.92 1.19052,2.66251 1.53029,3.45957 3.14593,7.38 0.33999,0.825 0.76284,1.824 0.93966,2.22 0.17683,0.396 0.60875,1.422 0.95984,2.28 0.35108,0.858 0.78538,1.884 0.96511,2.28 0.17973,0.396 0.53719,1.206 0.79436,1.8 0.25717,0.594 0.82361,1.87136 1.25877,2.83858 0.66029,1.46762 0.73427,1.79461 0.44716,1.97633 -0.49136,0.31098 -17.17319,0.28904 -17.75681,-0.0234 -0.25528,-0.13665 -0.46414,-0.3936 -0.46414,-0.571 0,-0.17741 -0.28189,-0.95661 -0.62643,-1.73156 -0.6041,-1.35878 -1.23139,-2.77773 -1.89606,-4.289 -0.17417,-0.396 -0.61218,-1.422 -0.97337,-2.28 -0.36119,-0.858 -1.00565,-2.316 -1.43214,-3.24 -1.78049,-3.85749 -2.0308,-4.41595 -2.0308,-4.53095 0,-0.1639 -1.71531,-3.88707 -2.94351,-6.38905 -0.89925,-1.83187 -3.45199,-6.43486 -4.79159,-8.64 -1.73972,-2.86379 -5.711,-7.1555 -7.92615,-8.56568 -1.39103,-0.88554 -3.1117,-1.7521 -3.48144,-1.75332 -0.16827,-5.5e-4 -0.9204,-0.217 -1.67139,-0.481 -1.14943,-0.40406 -1.98058,-0.48 -5.25347,-0.48 -2.13841,0 -4.05882,0.0656 -4.26758,0.14568 -0.34217,0.13132 -0.37957,2.24502 -0.37957,21.45432 0,19.2093 -0.0374,21.323 -0.37956,21.45432 -0.62973,0.24169 -15.89576,0.16758 -16.04746,-0.0779 z m 32.86419,-55.43982 c 4.06007,-0.85655 6.68427,-2.07775 8.8701,-4.12779 2.13703,-2.004279 3.15662,-4.055519 3.77156,-7.587719 0.48088,-2.76221 0.48235,-2.88371 0.0702,-5.821095 -0.23149,-1.65 -0.62181,-3.453075 -0.86738,-4.006833 -0.24558,-0.553758 -0.4465,-1.115961 -0.4465,-1.249341 0,-0.237965 -0.56617,-1.164968 -1.81655,-2.974289 -1.53213,-2.217011 -4.72412,-4.187495 -8.72588,-5.386663 -1.99865,-0.598918 -2.25414,-0.616571 -9.25415,-0.639398 -3.95932,-0.01291 -7.38773,0.05413 -7.61869,0.148992 -0.39385,0.161759 -0.41993,1.140817 -0.41993,15.768077 0,14.599769 0.0268,15.611229 0.41993,15.840239 0.5138,0.29931 14.61875,0.33086 16.01724,0.0358 z m 61.39213,55.29283 c -0.0796,-0.20738 0.0419,-0.82984 0.26986,-1.38325 1.26918,-3.08071 2.44909,-6.17938 2.8049,-7.36618 0.13851,-0.462 0.34918,-0.95977 0.46814,-1.10615 0.11897,-0.14638 0.37105,-0.74038 0.56018,-1.32 0.65271,-2.00033 1.28647,-3.74567 1.52473,-4.19904 0.13146,-0.25014 0.5301,-1.26481 0.88585,-2.25481 0.35576,-0.99 0.79525,-2.124 0.97665,-2.52 0.3566,-0.77845 0.89932,-2.25954 1.44151,-3.93385 0.1877,-0.57962 0.4386,-1.17362 0.55757,-1.32 0.11896,-0.14638 0.32963,-0.64415 0.46814,-1.10615 0.26835,-0.8951 1.09366,-3.11634 1.96179,-5.28 0.2913,-0.726 0.72591,-1.86 0.96581,-2.52 0.2399,-0.66 0.67103,-1.794 0.95807,-2.52 0.28704,-0.726 0.6775,-1.752 0.8677,-2.28 0.1902,-0.528 0.70425,-1.878 1.14234,-3 0.43808,-1.122 1.09212,-2.85 1.45343,-3.84 0.36131,-0.99 0.76449,-2.00467 0.89595,-2.25481 0.13146,-0.25015 0.432,-1.00615 0.66788,-1.68 0.90144,-2.57529 1.03138,-2.92557 1.34485,-3.62519 0.17742,-0.396 0.48811,-1.179 0.69042,-1.74 0.20231,-0.561 0.53272,-1.479 0.73426,-2.04 0.20154,-0.561 0.46857,-1.236 0.5934,-1.5 0.12483,-0.264 0.39186,-0.939 0.5934,-1.5 0.20154,-0.560999 0.53196,-1.478999 0.73427,-2.039999 0.2023,-0.561 0.51474,-1.344 0.6943,-1.74 0.5091,-1.12276 1.33745,-3.34553 1.33745,-3.58887 0,-0.12077 0.19986,-0.65869 0.44413,-1.19536 0.24427,-0.53668 0.74018,-1.78577 1.10204,-2.77577 0.36185,-0.990005 0.80633,-2.124005 0.98773,-2.520005 0.3566,-0.778446 0.89932,-2.25954 1.44151,-3.933853 0.1877,-0.579619 0.4386,-1.173619 0.55757,-1.32 0.11896,-0.146381 0.32963,-0.644147 0.46814,-1.106147 0.26195,-0.873761 1.05489,-3.012369 1.95768,-5.28 0.79893,-2.006758 1.67763,-4.356736 1.92943,-5.16 0.12413,-0.396 0.37868,-1.044 0.56566,-1.44 0.18698,-0.396 0.63158,-1.53 0.98801,-2.52 0.35643,-0.99 0.78368,-2.07 0.94945,-2.4 0.16577,-0.33 0.37213,-0.897 0.45857,-1.26 l 0.15716,-0.66 6.5343,0.0037 c 3.59386,0.002 6.66767,0.08841 6.83069,0.191966 0.16301,0.10356 0.50184,0.776907 0.75295,1.496325 0.25111,0.719419 0.69221,1.902034 0.98022,2.628034 0.28801,0.726 0.71994,1.86 0.95983,2.52 0.2399,0.66 0.67636,1.794 0.96992,2.52 0.29356,0.726 0.73002,1.86 0.96992,2.52 0.2399,0.66 0.67182,1.794 0.95983,2.52 0.28801,0.726 0.71682,1.871334 0.95289,2.545186 0.23608,0.673852 0.5368,1.429852 0.66826,1.68 0.13146,0.250148 0.53545,1.264814 0.89774,2.254814 1.24152,3.392544 2.5576,6.84021 2.88588,7.56 0.1806,0.396 0.5032,1.206 0.71687,1.8 0.21367,0.594 0.54409,1.512 0.73426,2.04 0.19018,0.528 0.4479,1.176 0.57274,1.44 0.12483,0.264 0.40116,0.966 0.61406,1.56 0.90962,2.53779 1.09817,3.03737 1.40402,3.719999 0.17743,0.396 0.45531,1.098 0.61752,1.56 0.76322,2.17377 1.00325,2.81172 1.30938,3.48 0.1814,0.396 0.62588,1.53 0.98773,2.52 0.36186,0.99 0.85777,2.2391 1.10204,2.77577 0.24427,0.53668 0.44413,1.13365 0.44413,1.3266 0,0.19296 0.14586,0.56386 0.32414,0.82423 0.17827,0.26037 0.40256,0.7974 0.49842,1.1934 0.0958,0.396 0.3231,1.044 0.50499,1.44 0.30919,0.67314 0.50227,1.18004 1.43986,3.78 0.20231,0.561 0.513,1.344 0.69043,1.74 0.17742,0.396 0.45385,1.098 0.61429,1.56 0.16043,0.462 0.50974,1.38 0.77624,2.04 0.2665,0.66 0.6777,1.75133 0.91377,2.42519 0.23608,0.67385 0.53344,1.42985 0.6608,1.68 0.22789,0.44758 0.40834,0.92906 1.25925,3.36 0.23587,0.67385 0.53642,1.42985 0.66788,1.68 0.13146,0.25014 0.53367,1.26481 0.8938,2.25481 0.36014,0.99 0.79318,2.124 0.96232,2.52 0.16914,0.396 0.59749,1.53 0.95188,2.52 0.35439,0.99 0.79277,2.124 0.97417,2.52 0.31229,0.68173 0.49265,1.15714 1.41125,3.72 0.2129,0.594 0.48923,1.296 0.61406,1.56 0.12484,0.264 0.38257,0.912 0.57274,1.44 0.19017,0.528 0.52059,1.446 0.73426,2.04 0.21367,0.594 0.53541,1.404 0.71497,1.8 0.50153,1.10606 1.33745,3.34401 1.33745,3.58066 0,0.11626 0.29509,0.79426 0.65576,1.50667 0.56048,1.10711 0.60406,1.32798 0.29994,1.5203 -0.50222,0.31762 -16.93337,0.30255 -17.52861,-0.0161 -0.25528,-0.13665 -0.46414,-0.46763 -0.46414,-0.73551 0,-0.26789 -0.19843,-0.99309 -0.44095,-1.61156 -0.53165,-1.3558 -1.15181,-3.14045 -1.60003,-4.60449 -0.18186,-0.594 -0.61506,-1.836 -0.96267,-2.76 -0.3476,-0.924 -0.77024,-2.17098 -0.93919,-2.77107 -0.16894,-0.60009 -0.42705,-1.3151 -0.57356,-1.58891 -0.14652,-0.27381 -0.37274,-0.91683 -0.50272,-1.42893 -0.31339,-1.23465 -1.16835,-3.70663 -1.46056,-4.22298 -0.12821,-0.22654 -0.33838,-0.82054 -0.46706,-1.32 -0.56825,-2.20574 -1.4979,-4.54188 -1.96111,-4.92811 -0.46958,-0.39154 -1.6877,-0.42 -17.97848,-0.42 -10.07558,0 -17.72101,0.0936 -18.05631,0.22114 -0.38944,0.14809 -0.66686,0.52468 -0.8398,1.14 -0.14204,0.50537 -0.54425,1.67486 -0.8938,2.59886 -0.34955,0.924 -0.78839,2.166 -0.9752,2.76 -0.18681,0.594 -0.44396,1.296 -0.57145,1.56 -0.29064,0.60187 -1.16932,3.12262 -1.42219,4.08 -0.1046,0.396 -0.36928,1.06564 -0.58818,1.48808 -0.2189,0.42245 -0.39801,0.94612 -0.39801,1.16373 0,0.21761 -0.16016,0.73597 -0.35592,1.15192 -0.19576,0.41595 -0.51072,1.24227 -0.69991,1.83627 -0.18919,0.594 -0.62921,1.836 -0.97782,2.76 -0.34862,0.924 -0.77328,2.16844 -0.94369,2.76542 -0.17042,0.59697 -0.45086,1.35297 -0.62321,1.68 -0.17236,0.32702 -0.3893,0.75658 -0.48211,0.95458 -0.1441,0.30746 -1.33032,0.36923 -8.12758,0.42324 -7.05089,0.056 -7.97535,0.0202 -8.10352,-0.31381 z m 57.29219,-38.6781 c 0.34696,-0.34718 0.0783,-1.3404 -1.75508,-6.48758 -0.2461,-0.69093 -0.64648,-1.82493 -0.88974,-2.52 -0.24326,-0.69506 -0.57532,-1.64175 -0.73791,-2.10375 -0.1626,-0.462 -0.44046,-1.326 -0.61747,-1.92 -0.38621,-1.29599 -1.30372,-4.05057 -2.35826,-7.08 -0.22974,-0.66 -0.51993,-1.631999 -0.64487,-2.159999 -0.12494,-0.528 -0.37336,-1.338 -0.55204,-1.8 -0.17868,-0.462 -0.61348,-1.812 -0.96623,-3 -0.35274,-1.188 -0.75592,-2.484 -0.89595,-2.88 -0.14003,-0.396 -0.40022,-1.26 -0.5782,-1.92 -0.17798,-0.66 -0.47858,-1.686005 -0.66799,-2.280005 -0.95432,-2.992701 -1.36562,-4.488045 -1.36247,-4.953412 0.002,-0.282376 -0.1998,-0.764493 -0.44825,-1.071369 -0.39549,-0.488494 -0.52831,-0.523058 -1.06687,-0.277633 -0.45107,0.205558 -0.65356,0.523317 -0.75917,1.19137 -0.0792,0.501074 -0.33916,1.451044 -0.57766,2.111044 -0.2385,0.66 -0.54559,1.632 -0.68243,2.16 -0.13684,0.528 -0.36427,1.284 -0.50539,1.68 -0.47379,1.329455 -1.02127,3.112255 -1.25293,4.080005 -0.12639,0.528 -0.38111,1.338 -0.56605,1.8 -0.18494,0.462 -0.62279,1.812 -0.973,3 -0.35021,1.188 -0.78198,2.538 -0.95947,2.999999 -0.46888,1.22041 -1.0694,3.06418 -1.44613,4.44 -0.37664,1.37549 -0.95954,3.1007 -1.59628,4.72449 -0.24252,0.61847 -0.44095,1.29777 -0.44095,1.50956 0,0.21179 -0.21596,0.80847 -0.47991,1.32595 -0.26396,0.51748 -0.47992,1.11311 -0.47992,1.32361 0,0.2105 -0.20374,0.8358 -0.45275,1.38956 -0.24901,0.55376 -0.52914,1.3651 -0.62251,1.803 -0.0934,0.43789 -0.3209,1.08589 -0.50561,1.44 -0.18471,0.3541 -0.33651,0.78951 -0.33732,0.96756 -8.1e-4,0.17805 -0.17534,0.69018 -0.38784,1.13805 -0.45858,0.96656 -0.32598,1.46108 0.43168,1.60997 0.30502,0.06 6.24526,0.0953 13.20053,0.0786 9.49761,-0.0228 12.71778,-0.10224 12.93444,-0.31904 z m 60.74471,38.88972 c -0.23859,-0.0963 -0.29995,-10.19973 -0.29995,-49.39166 0,-42.637283 0.0466,-49.309314 0.34624,-49.558027 0.25731,-0.213579 4.40496,-0.323217 16.14645,-0.426811 15.26335,-0.134666 15.94257,-0.121572 19.99025,0.385365 2.30452,0.288622 4.67596,0.678081 5.26985,0.865465 0.5939,0.187383 1.56573,0.416487 2.15963,0.509121 0.5939,0.09263 1.45615,0.368014 1.91612,0.611958 0.45996,0.243944 1.03247,0.443535 1.27223,0.443535 0.23976,0 0.88925,0.234496 1.4433,0.521103 0.55406,0.286606 1.22334,0.629761 1.48729,0.762566 6.38126,3.210633 11.25,9.522284 12.70967,16.476331 0.18009,0.858 0.4576,1.884 0.61668,2.28 0.19586,0.487562 0.29263,2.540765 0.29978,6.360005 0.01,5.13368 -0.0361,5.7877 -0.50887,7.28528 -0.28569,0.9049 -0.51943,1.90429 -0.51943,2.22087 0,0.316569 -0.21596,0.978589 -0.47992,1.471159 -0.26395,0.49257 -0.47991,1.03668 -0.47991,1.20914 0,0.33987 -1.1501,2.77924 -1.94886,4.13355 -2.21674,3.75852 -7.32395,8.32445 -11.36885,10.16394 -0.79186,0.36012 -1.64438,0.76925 -1.89448,0.90918 -0.46233,0.25868 -2.55726,1.02213 -3.86452,1.40835 -5.2875,1.56212 -10.4857,2.16048 -18.75962,2.15939 -5.62948,-7.4e-4 -6.57369,0.0511 -6.90153,0.379 -0.34019,0.34026 -0.37893,2.36878 -0.37148,19.45386 0.005,10.4907 -0.0546,19.17577 -0.13142,19.30014 -0.14316,0.23168 -15.56191,0.29592 -16.12865,0.0672 z m 34.25409,-51.94269 c 2.50482,-0.7003 4.65607,-1.81275 6.16831,-3.18977 1.23152,-1.12141 2.95011,-3.40736 2.95011,-3.92405 0,-0.13517 0.15503,-0.37446 0.34452,-0.53174 0.18948,-0.15728 0.41426,-0.6036 0.49951,-0.9918 0.0852,-0.388209 0.3066,-1.009779 0.49189,-1.381279 0.50995,-1.02238 0.94395,-4.19362 0.94152,-6.87972 -0.005,-5.654457 -1.27061,-9.609068 -4.0884,-12.775918 -2.2398,-2.517266 -4.63212,-3.963729 -8.50726,-5.143733 -1.69937,-0.51747 -2.19866,-0.54836 -8.95739,-0.554185 -6.81209,-0.0059 -7.17416,0.01632 -7.4987,0.459702 -0.28719,0.39235 -0.34101,3.17809 -0.34101,17.652004 0,13.046989 0.0693,17.255489 0.28795,17.474129 0.21214,0.21217 2.34447,0.2882 8.0986,0.28876 7.19958,7e-4 7.95146,-0.0386 9.61035,-0.5024 z m 171.4904,51.94181 c -0.088,-0.088 -0.15997,-19.41388 -0.15997,-42.94639 V 74.855194 l -0.53895,-0.377555 c -0.47314,-0.33146 -1.98574,-0.376034 -12.38934,-0.365094 -6.51773,0.0069 -11.89861,-0.03575 -11.95753,-0.09468 -0.0589,-0.05893 -0.11123,-2.951757 -0.11625,-6.428515 l -0.009,-6.321377 34.22186,-0.06082 34.22185,-0.06082 v 0.825616 c 0,0.454088 -0.21521,1.723457 -0.47824,2.820819 -0.26303,1.097362 -0.47899,2.447362 -0.47991,3 -9.3e-4,0.552638 -0.21689,1.902638 -0.47992,3 -0.26303,1.097362 -0.47899,2.292203 -0.47992,2.655203 -9.2e-4,0.363 -0.13666,0.663944 -0.30163,0.668766 -0.16497,0.0048 -5.43909,0.001 -11.72027,-0.0084 -7.15317,-0.01075 -11.65855,0.07343 -12.05792,0.225294 l -0.63759,0.242457 v 42.940262 c 0,38.93451 -0.0354,42.95386 -0.37957,43.08594 -0.51926,0.1993 -16.05767,0.18561 -16.25756,-0.0143 z m 74.2866,-0.0382 c -0.23945,-0.15207 -0.28821,-10.25828 -0.23996,-49.73633 l 0.0606,-49.545484 8.21858,-0.06315 c 6.49353,-0.04989 8.2187,4.8e-4 8.21916,0.24 0.0563,29.364605 -0.0375,98.928754 -0.13357,99.084214 -0.1666,0.2696 -15.70143,0.28959 -16.12478,0.0207 z m 55.89893,-0.0898 c -0.43723,-0.4373 -0.41687,-98.083922 0.0206,-98.68226 0.28719,-0.39283 1.41286,-0.431794 16.28542,-0.563709 15.5555,-0.137973 16.08692,-0.127603 20.14795,0.393165 2.29408,0.294182 4.65696,0.688823 5.25086,0.87698 0.5939,0.188157 1.56573,0.442932 2.15963,0.566166 2.55636,0.530446 6.21218,2.172177 8.91982,4.005657 4.41523,2.989771 8.45366,8.888771 9.59255,14.011997 0.13204,0.594 0.42102,1.728 0.64217,2.52 0.58695,2.102066 0.58898,12.454535 0.003,14.040005 -0.21963,0.594 -0.46883,1.59048 -0.55377,2.2144 -0.0849,0.623919 -0.25325,1.195479 -0.37401,1.270129 -0.12077,0.0747 -0.33207,0.55356 -0.46955,1.06424 -0.42348,1.57293 -2.87702,6.20667 -3.56359,6.73015 -0.0873,0.0666 -0.69565,0.76034 -1.3518,1.54165 -1.8918,2.25264 -5.40623,4.89496 -8.62346,6.48353 -1.55662,0.76861 -3.17016,1.48434 -3.58565,1.59052 -0.41549,0.10618 -1.24136,0.35304 -1.83525,0.54858 -2.96095,0.9749 -3.90471,1.19793 -6.34989,1.50064 -1.45671,0.18034 -3.40443,0.43421 -4.32827,0.56417 -0.92384,0.12996 -4.66297,0.23982 -8.30918,0.24414 -5.33787,0.006 -6.68303,0.0724 -6.9044,0.33917 -0.20165,0.24302 -0.27271,5.40073 -0.26663,19.35215 0.006,13.83437 -0.0659,19.11022 -0.26375,19.34868 -0.37243,0.44882 -15.79579,0.48666 -16.24252,0.0399 z m 34.746,-51.88874 c 4.47553,-1.54885 7.34743,-3.90938 8.93406,-7.34326 1.20636,-2.610889 1.43874,-3.259879 1.63275,-4.559999 0.10834,-0.726 0.31874,-2.13 0.46757,-3.12 0.47081,-3.13198 -0.66048,-9.248836 -2.20729,-11.934699 -1.23228,-2.139716 -3.41622,-4.51532 -5.02436,-5.465306 -1.2515,-0.739302 -3.44368,-1.8 -3.72012,-1.8 -0.17636,0 -0.99597,-0.238595 -1.82135,-0.530211 -1.41618,-0.500348 -1.90223,-0.530761 -8.63003,-0.54 -6.06237,-0.0083 -7.18395,0.04471 -7.49433,0.354404 -0.31971,0.319008 -0.36666,2.51606 -0.37844,17.708252 -0.007,9.539229 0.0542,17.453519 0.13686,17.587299 0.0983,0.15899 3.0308,0.21847 8.46761,0.17175 7.43805,-0.0639 8.45682,-0.11977 9.63707,-0.52823 z m 326.88355,52.01779 c -0.2386,-0.0963 -0.3,-10.19973 -0.3,-49.39166 0,-42.557679 0.047,-49.309642 0.3451,-49.557026 0.2558,-0.212382 4.4892,-0.322722 16.3796,-0.426919 15.5339,-0.136125 16.1732,-0.123896 20.4714,0.391652 2.4402,0.292691 4.9227,0.683006 5.5166,0.867367 0.5939,0.184361 1.6197,0.439862 2.2796,0.567779 1.0491,0.203373 1.8851,0.487007 5.2791,1.791142 0.3959,0.152136 0.9868,0.465611 1.3131,0.696611 0.3263,0.231 0.6739,0.42 0.7724,0.42 0.4466,0 3.2814,2.177545 4.7601,3.656495 3.5958,3.596412 5.7808,8.263989 6.4898,13.863505 0.2475,1.954583 0.2435,7.367275 -0.01,9.120005 -0.2915,2.04141 -1.6582,6.67909 -2.2413,7.605389 -0.099,0.15696 -0.5084,0.91064 -0.9104,1.67484 -1.3731,2.6108 -3.9254,5.29424 -6.8176,7.16795 -1.2484,0.80877 -4.6419,2.46549 -5.3841,2.62852 -0.9514,0.20901 -1.9347,1.00986 -1.9347,1.57584 0,0.29805 0.3558,0.63655 1.0199,0.97043 1.5814,0.79507 6.0589,5.48696 7.8796,8.25703 0.8677,1.32 1.6549,2.562 1.7496,2.76 0.095,0.198 0.4311,0.792 0.7478,1.32 0.3167,0.528 1.0196,1.824 1.562,2.88 0.5424,1.056 1.0816,2.082 1.1983,2.28 0.3943,0.66917 2.1022,4.42424 3.2202,7.08 0.6113,1.452 1.2624,2.964 1.4471,3.36 0.1846,0.396 0.623,1.422 0.974,2.28 0.3511,0.858 0.783,1.884 0.9599,2.28 0.1768,0.396 0.6075,1.422 0.957,2.28 0.3496,0.858 0.8306,1.992 1.0691,2.52 0.2384,0.528 0.9442,2.148 1.5684,3.6 0.6241,1.452 1.403,3.22145 1.7309,3.9321 0.4813,1.04328 0.534,1.33176 0.2739,1.49801 -0.1772,0.11324 -4.2517,0.1798 -9.0546,0.14789 -7.4778,-0.0497 -8.7595,-0.10972 -8.9214,-0.418 -0.104,-0.198 -0.4127,-0.873 -0.686,-1.5 -0.4973,-1.14094 -1.0577,-2.40677 -1.9124,-4.32 -0.2507,-0.561 -0.7457,-1.722 -1.1002,-2.58 -0.3544,-0.858 -0.8512,-2.019 -1.104,-2.58 -0.663,-1.47139 -1.2989,-2.88786 -1.9125,-4.26 -1.7176,-3.84051 -3.5708,-7.86065 -3.817,-8.28 -0.1162,-0.198 -0.5666,-1.062 -1.0009,-1.92 -0.4342,-0.858 -1.1986,-2.24604 -1.6986,-3.08453 -0.5,-0.83849 -0.9091,-1.55904 -0.9091,-1.60122 0,-0.1884 -2.2228,-3.36552 -3.3086,-4.72909 -2.3229,-2.91701 -5.3801,-5.43217 -7.8551,-6.46233 -2.9619,-1.23284 -3.9581,-1.40283 -8.2214,-1.40283 -3.8499,0 -4.1302,0.0304 -4.3674,0.47363 -0.1727,0.32278 -0.2485,7.12784 -0.2381,21.36627 0.01,11.49095 -0.05,20.99782 -0.1291,21.12637 -0.1475,0.23877 -15.5501,0.31017 -16.1333,0.0748 z m 32.8143,-55.50512 c 3.4121,-0.61761 6.034,-1.74611 8.2859,-3.56627 3.3192,-2.682849 4.9382,-6.949409 4.5859,-12.085619 -0.2962,-4.317524 -0.5136,-5.232707 -1.9204,-8.084084 -1.7298,-3.505811 -5.2067,-6.027956 -10.3515,-7.508983 -1.8109,-0.521312 -2.3318,-0.553129 -9.197,-0.561793 -6.9323,-0.0088 -7.2935,0.0129 -7.6187,0.456686 -0.2866,0.391208 -0.3413,2.898221 -0.3413,15.642854 0,13.477259 0.042,15.219229 0.3771,15.554139 0.327,0.32712 1.3535,0.37524 7.7386,0.36283 4.0489,-0.008 7.8475,-0.10226 8.4414,-0.20976 z M 617.14629,72.417855 c -0.3715,-0.533567 -1.32334,-1.809975 -2.1152,-2.836462 -0.79186,-1.026487 -1.70621,-2.219519 -2.03187,-2.651182 -0.32567,-0.431664 -0.81159,-1.028529 -1.07982,-1.326367 -0.26823,-0.297838 -1.61894,-1.801932 -3.00157,-3.342431 -3.4652,-3.86084 -8.22901,-8.150397 -13.44336,-12.105035 -0.56588,-0.429171 -4.36368,-2.946939 -5.40082,-3.5805 -2.35894,-1.441006 -5.90064,-3.313133 -7.91689,-4.184824 -0.92384,-0.399408 -2.11873,-0.932495 -2.65531,-1.184637 -0.53659,-0.252143 -1.08066,-0.458441 -1.20905,-0.458441 -0.12839,0 -0.65704,-0.216 -1.17477,-0.48 -0.51773,-0.264 -1.10538,-0.48 -1.30588,-0.48 -0.2005,0 -0.90655,-0.205542 -1.56898,-0.45676 -2.13759,-0.810643 -5.97339,-1.835912 -8.28321,-2.214022 -0.85785,-0.14042 -2.26161,-0.42321 -3.11946,-0.6284 -1.00542,-0.2405 -3.20135,-0.41301 -6.17894,-0.4854 -2.54056,-0.0618 -4.6192,-0.19421 -4.6192,-0.29431 0,-0.22364 2.22788,-1.20111 2.7376,-1.20111 0.20296,0 0.83083,-0.20134 1.39527,-0.44742 1.50249,-0.65506 4.07239,-1.4728 4.62562,-1.47187 0.26395,4.5e-4 1.23579,-0.20815 2.15963,-0.46355 2.25453,-0.62328 8.84363,-1.45858 11.51801,-1.46013 5.07313,-0.003 14.26758,1.72358 18.0633,3.39191 0.56444,0.24808 1.17228,0.45106 1.35077,0.45106 0.53923,0 6.96284,3.03431 10.16527,4.801741 1.90328,1.050426 6.82961,4.527726 9.89385,6.983661 4.43934,3.558063 11.00339,10.086876 12.89739,12.828145 l 0.50682,0.733545 -0.52317,0.890972 c -0.43131,0.734528 -2.01322,3.080229 -5.45036,8.081938 -0.22677,0.33 -0.98725,1.491 -1.68996,2.58 -0.70271,1.089 -1.41099,1.98 -1.57396,1.98 -0.16297,0 -0.60025,-0.436555 -0.97175,-0.970121 z M 632.908,36.405424 c -6.90399,-1.69665 -11.16769,-5.9055 -12.86293,-12.69745 -0.31299,-1.254 -0.56907,-2.928 -0.56907,-3.72 0,-1.55629 0.90926,-5.55311 1.52878,-6.72 0.21024,-0.396 0.38292,-0.79558 0.38373,-0.88797 0.002,-0.27973 1.47381,-2.4097605 2.37072,-3.4320305 1.85121,-2.10994 6.21019,-4.92 7.63193,-4.92 0.2551,0 1.1281,-0.22437 1.93999,-0.49859 1.16097,-0.39214 1.87543,-0.47535 3.34602,-0.38974 1.83071,0.10657 5.75784,1.05995 6.36334,1.54481 0.16813,0.13463 0.56955,0.3259 0.89203,0.42506 0.839,0.25797 2.82372,1.67226 4.15782,2.96281 1.07292,1.0379 3.0545,3.6761605 3.0545,4.0667405 0,0.0968 0.20156,0.55242 0.44792,1.01247 0.76057,1.42028 1.47175,4.72731 1.47175,6.84375 0,1.97751 -0.58325,4.85953 -1.35847,6.71269 -0.73289,1.75195 -2.54082,4.21584 -4.21456,5.7437 -3.88036,3.54214 -9.76569,5.13772 -14.5835,3.95375 z"
     id="path1"
     />
</svg>
